<?xml version="1.0" ?><svg contentScriptType="text/ecmascript" contentStyleType="text/css" enable-background="new 0 0 2048 2048" height="2048px" id="Layer_1" preserveAspectRatio="xMidYMid meet" version="1.1" viewBox="0.0 0 1920.0 2048" width="1920.0px" xml:space="preserve" xmlns="http://www.w3.org/2000/svg" xmlns:xlink="http://www.w3.org/1999/xlink" zoomAndPan="magnify"><path d="M1920,1088c-0.667,21.333-96.667,53.333-288,96l-352,32l-224,64h-64l-293,352h69c17.333,0,32.333,1.5,45,4.5  s19,6.833,19,11.5s-6.333,8.5-19,11.5s-27.667,4.5-45,4.5h-96H512h-64v-32h64v-416H352l-192,224H64l-32-32v-192h32v-32h128v-8  L0,1152v-128l192-24v-8H64v-32H32V768l32-32h96l192,224h160V544h-64v-32h64h160h96c17.333,0,32.333,1.5,45,4.5s19,6.833,19,11.5  s-6.333,8.5-19,11.5s-27.667,4.5-45,4.5h-69l293,352h64l224,64l352,32c174,38.667,269.667,69.667,287,93L1920,1088z"/></svg>